<svg xmlns="http://www.w3.org/2000/svg" xmlns:xlink="http://www.w3.org/1999/xlink" version="1.1" width="27" height="311" viewBox="0 0 1000 1000" xml:space="preserve">
<desc>Created with Fabric.js 3.5.0</desc>
<defs>
</defs>
<rect x="0" y="0" width="100%" height="100%" fill="rgba(255,255,255,0)"/>
<g transform="matrix(0 1.7784 -1.7773 0 454.7495 313.4984)" id="957780">
<path style="stroke: none; stroke-width: 1; stroke-dasharray: none; stroke-linecap: butt; stroke-dashoffset: 0; stroke-linejoin: miter; stroke-miterlimit: 4; is-custom-font: none; font-file-url: none; fill: rgb(0,0,0); fill-rule: nonzero; opacity: 1;" vector-effect="non-scaling-stroke" transform=" translate(-176, -256)" d="M 178.3 5.7 L 40.3 143.7 C 35 149 32 156.2 32 163.7 C 32 179.3 44.7 192 60.3 192 H 144 V 400 c 0 8.8 -7.2 16 -16 16 H 32 c -17.7 0 -32 14.3 -32 32 v 32 c 0 17.7 14.3 32 32 32 h 96 c 61.9 0 112 -50.1 112 -112 V 192 h 83.7 c 15.6 0 28.3 -12.7 28.3 -28.3 c 0 -7.5 -3 -14.7 -8.3 -20 L 205.7 5.7 C 202 2 197.1 0 192 0 s -10 2 -13.7 5.7 z" stroke-linecap="round"/>
</g>
</svg>